<svg width="23" height="23" viewBox="0 0 23 23" fill="none" xmlns="http://www.w3.org/2000/svg">
<g id="DotsThreeVertical">
<path id="Vector" d="M12.5781 11.5C12.5781 11.7132 12.5149 11.9217 12.3964 12.099C12.278 12.2763 12.1096 12.4145 11.9126 12.4961C11.7156 12.5777 11.4988 12.599 11.2897 12.5574C11.0805 12.5158 10.8884 12.4131 10.7377 12.2623C10.5869 12.1116 10.4842 11.9195 10.4426 11.7103C10.401 11.5012 10.4223 11.2844 10.5039 11.0874C10.5855 10.8904 10.7237 10.722 10.901 10.6036C11.0783 10.4851 11.2868 10.4219 11.5 10.4219C11.7859 10.4219 12.0602 10.5355 12.2623 10.7377C12.4645 10.9398 12.5781 11.2141 12.5781 11.5ZM11.5 6.46875C11.7132 6.46875 11.9217 6.40552 12.099 6.28705C12.2763 6.16859 12.4145 6.00021 12.4961 5.80321C12.5777 5.6062 12.599 5.38943 12.5574 5.18029C12.5158 4.97116 12.4131 4.77905 12.2623 4.62828C12.1116 4.4775 11.9195 4.37482 11.7103 4.33322C11.5012 4.29162 11.2844 4.31297 11.0874 4.39457C10.8904 4.47617 10.722 4.61435 10.6036 4.79165C10.4851 4.96895 10.4219 5.17739 10.4219 5.39063C10.4219 5.67656 10.5355 5.95079 10.7377 6.15298C10.9398 6.35516 11.2141 6.46875 11.5 6.46875ZM11.5 16.5312C11.2868 16.5312 11.0783 16.5945 10.901 16.7129C10.7237 16.8314 10.5855 16.9998 10.5039 17.1968C10.4223 17.3938 10.401 17.6106 10.4426 17.8197C10.4842 18.0288 10.5869 18.2209 10.7377 18.3717C10.8884 18.5225 11.0805 18.6252 11.2897 18.6668C11.4988 18.7084 11.7156 18.687 11.9126 18.6054C12.1096 18.5238 12.278 18.3856 12.3964 18.2083C12.5149 18.0311 12.5781 17.8226 12.5781 17.6094C12.5781 17.3234 12.4645 17.0492 12.2623 16.847C12.0602 16.6448 11.7859 16.5312 11.5 16.5312Z" fill="#81868C"/>
</g>
</svg>
