<svg width="15" height="16" viewBox="0 0 15 16" fill="none" xmlns="http://www.w3.org/2000/svg">
<g id="&#208;&#146;&#208;&#190;&#208;&#185;&#209;&#130;&#208;&#184;" clip-path="url(#clip0_1371_1157)">
<path id="Vector" d="M8.25444 7.23828L7.12358 6.10742C6.83765 5.82148 6.83765 5.35771 7.12358 5.07177C7.40952 4.78583 7.87329 4.78583 8.15923 5.07177L10.5402 7.45273C10.8261 7.73867 10.8261 8.20244 10.5402 8.48867L10.0225 9.00634L8.15923 10.8696C7.87329 11.1556 7.40952 11.1556 7.12358 10.8696C6.83765 10.5837 6.83765 10.1199 7.12358 9.83398L8.25444 8.70312L1.51177 8.70312C1.10718 8.70312 0.779346 8.37529 0.779346 7.9707C0.779346 7.56611 1.10718 7.23828 1.51177 7.23828L8.25444 7.23828Z" fill="#50BA00"/>
<path id="Vector_2" d="M14.5 1.81836L14.5 14.123C14.5 14.5276 14.1722 14.8555 13.7676 14.8555L8.99219 14.8555C8.5876 14.8555 8.25976 14.5276 8.25976 14.123C8.25976 13.7185 8.5876 13.3906 8.99219 13.3906L13.0352 13.3906L13.0352 2.55078L8.99219 2.55078C8.5876 2.55078 8.25977 2.22295 8.25977 1.81836C8.25977 1.41377 8.5876 1.08594 8.99219 1.08594L13.7676 1.08594C14.1722 1.08594 14.5 1.41377 14.5 1.81836Z" fill="#50BA00"/>
</g>
<defs>
<clipPath id="clip0_1371_1157">
<rect width="15" height="15" fill="white" transform="translate(15 15.5) rotate(180)"/>
</clipPath>
</defs>
</svg>
