<svg width="15" height="16" viewBox="0 0 15 16" fill="none" xmlns="http://www.w3.org/2000/svg">
<g id="exit 1">
<path id="Vector" d="M3.74556 8.76173L4.87642 9.89258C5.16235 10.1785 5.16235 10.6423 4.87642 10.9282C4.59048 11.2142 4.12671 11.2142 3.84077 10.9282L1.45981 8.54727C1.17388 8.26133 1.17388 7.79756 1.45981 7.51133L1.97749 6.99366L3.84077 5.13038C4.12671 4.84444 4.59048 4.84444 4.87642 5.13038C5.16235 5.41631 5.16235 5.88008 4.87642 6.16602L3.74556 7.29688H10.4882C10.8928 7.29688 11.2207 7.62471 11.2207 8.0293C11.2207 8.43389 10.8928 8.76173 10.4882 8.76173H3.74556Z" fill="#EF5350"/>
<path id="Vector_2" d="M13.7402 1.87695V14.1816C13.7402 14.5862 13.4124 14.9141 13.0078 14.9141H8.23242C7.82783 14.9141 7.5 14.5862 7.5 14.1816C7.5 13.7771 7.82783 13.4492 8.23242 13.4492H12.2754V2.60938H8.23242C7.82783 2.60938 7.5 2.28154 7.5 1.87695C7.5 1.47236 7.82783 1.14453 8.23242 1.14453H13.0078C13.4124 1.14453 13.7402 1.47236 13.7402 1.87695Z" fill="#EF5350"/>
</g>
</svg>
