<svg width="18" height="18" viewBox="0 0 18 18" fill="none" xmlns="http://www.w3.org/2000/svg">
<g id="gallery 1" clip-path="url(#clip0_1640_1491)">
<path id="Vector" d="M13.7126 16.4032H1.84595C1.06935 16.4032 0.439697 15.7736 0.439697 14.997V6.27576C0.439697 5.49916 1.06935 4.86951 1.84595 4.86951H13.7126C14.4892 4.86951 15.1188 5.49916 15.1188 6.27576V14.997C15.1188 15.7736 14.4892 16.4032 13.7126 16.4032Z" stroke="#202125" stroke-miterlimit="10"/>
<path id="Vector_2" d="M2.67822 4.86952L2.89514 2.80479C2.97635 2.03241 3.66857 1.47202 4.44096 1.55323L16.2426 2.7939C17.0149 2.87511 17.5753 3.56698 17.4941 4.33937L16.5825 13.0128C16.5041 13.7577 15.8579 14.3055 15.119 14.2707" stroke="#202125" stroke-miterlimit="10"/>
<path id="Vector_3" d="M9.11883 9.96788C9.898 9.96788 10.5296 9.33623 10.5296 8.55706C10.5296 7.77789 9.898 7.14624 9.11883 7.14624C8.33965 7.14624 7.70801 7.77789 7.70801 8.55706C7.70801 9.33623 8.33965 9.96788 9.11883 9.96788Z" stroke="#202125" stroke-miterlimit="10"/>
<path id="Vector_4" d="M0.439697 13.1667L4.10755 10.8457C4.5906 10.5398 5.21075 10.5571 5.67622 10.8889L8.53864 12.9305C8.9795 13.2447 9.56169 13.2781 10.0356 13.0162L15.1188 10.2051" stroke="#202125" stroke-miterlimit="10"/>
</g>
<defs>
<clipPath id="clip0_1640_1491">
<rect width="18" height="18" fill="white"/>
</clipPath>
</defs>
</svg>
