<svg width="15" height="15" viewBox="0 0 15 15" fill="none" xmlns="http://www.w3.org/2000/svg">
<g id="pages_settings" clip-path="url(#clip0_1355_10)">
<path id="Vector" d="M8.61445 7.50468C8.61504 8.10586 8.12988 8.59423 7.53252 8.59365C6.93164 8.59336 6.44736 8.10966 6.44678 7.50879C6.4459 6.91142 6.9334 6.42685 7.53516 6.42656C8.12608 6.42656 8.61387 6.91377 8.61445 7.50468Z" fill="white"/>
<path id="Vector_2" d="M10.4297 0H4.57031C3.92314 0 3.39844 0.524707 3.39844 1.17188V13.8281C3.39844 14.4753 3.92314 15 4.57031 15H10.4297C11.0769 15 11.6016 14.4753 11.6016 13.8281V1.17188C11.6016 0.524707 11.0769 0 10.4297 0ZM10.7265 8.05869C10.6931 8.23594 10.5598 8.36221 10.3778 8.39004C9.81885 8.47529 9.50332 9.01348 9.70137 9.54346C9.77285 9.73389 9.72891 9.89971 9.57246 10.028C9.31963 10.2357 9.04131 10.4013 8.73867 10.5255C8.55615 10.6005 8.37861 10.5536 8.25381 10.3989C7.87969 9.93486 7.24541 9.94248 6.88359 10.4162C6.7585 10.5803 6.5833 10.6304 6.39082 10.5565C6.06621 10.4323 5.76797 10.2618 5.49756 10.0424C5.32793 9.90498 5.28398 9.73857 5.36777 9.53701C5.52861 9.15 5.40469 8.72402 5.06484 8.49609C4.9582 8.42461 4.8416 8.37891 4.71416 8.36162C4.46631 8.32822 4.35234 8.21895 4.31309 7.96992C4.25684 7.61426 4.26797 7.25918 4.33916 6.90645C4.37695 6.71895 4.5085 6.6041 4.7042 6.57803C5.26816 6.50244 5.59277 5.96777 5.40029 5.43164C5.32969 5.23477 5.37832 5.06836 5.54355 4.93945C5.80195 4.73848 6.08467 4.58145 6.39082 4.46572C6.42012 4.4543 6.45088 4.4458 6.48164 4.43906C6.50332 4.43438 6.52617 4.43496 6.54404 4.4332C6.68174 4.43525 6.78633 4.4918 6.8707 4.59316C7.04063 4.79736 7.25918 4.90635 7.5252 4.90811C7.7833 4.90986 7.99893 4.80938 8.17031 4.6166C8.34258 4.42354 8.47793 4.39072 8.71728 4.48418C9.03516 4.6084 9.32461 4.78037 9.58799 4.99717C9.74033 5.12227 9.78545 5.28281 9.72158 5.46943C9.54258 5.9918 9.84053 6.50537 10.3805 6.60527C10.5814 6.64248 10.6945 6.75703 10.7317 6.95566C10.8012 7.32393 10.7959 7.69131 10.7265 8.05869Z" fill="white"/>
<path id="Vector_3" d="M2.22656 12.6562H1.17188C0.524707 12.6562 0 12.1315 0 11.4844V3.51562C0 2.86846 0.524707 2.34375 1.17188 2.34375H2.22656V12.6562Z" fill="white"/>
<path id="Vector_4" d="M13.8281 12.6562H12.7734V2.34375H13.8281C14.4753 2.34375 15 2.86846 15 3.51562V11.4844C15 12.1315 14.4753 12.6562 13.8281 12.6562Z" fill="white"/>
</g>
<defs>
<clipPath id="clip0_1355_10">
<rect width="15" height="15" fill="white"/>
</clipPath>
</defs>
</svg>
