<svg width="18" height="18" viewBox="0 0 18 18" fill="none" xmlns="http://www.w3.org/2000/svg">
<g id="setting">
<path id="Vector (Stroke)" fill-rule="evenodd" clip-rule="evenodd" d="M9 6.1875C7.4467 6.1875 6.1875 7.4467 6.1875 9C6.1875 10.5533 7.4467 11.8125 9 11.8125C10.5533 11.8125 11.8125 10.5533 11.8125 9C11.8125 7.4467 10.5533 6.1875 9 6.1875ZM5.0625 9C5.0625 6.82538 6.82538 5.0625 9 5.0625C11.1746 5.0625 12.9375 6.82538 12.9375 9C12.9375 11.1746 11.1746 12.9375 9 12.9375C6.82538 12.9375 5.0625 11.1746 5.0625 9Z" fill="#202125"/>
<path id="Vector (Stroke)_2" fill-rule="evenodd" clip-rule="evenodd" d="M6.59119 1.49674C6.74568 1.44687 6.91419 1.46618 7.0534 1.54971L8.69764 2.53625C8.89919 2.52725 9.10103 2.52725 9.30258 2.53627L10.94 1.5564C11.078 1.47378 11.2449 1.45424 11.3983 1.50271C12.4728 1.84219 13.4608 2.41115 14.2937 3.1702C14.4131 3.27901 14.4799 3.4339 14.4772 3.59542L14.445 5.50668C14.5561 5.67719 14.6579 5.85348 14.7502 6.03481L16.417 6.96151C16.5574 7.03955 16.6577 7.17384 16.6927 7.33057C16.9379 8.4289 16.9405 9.56752 16.7002 10.667C16.6657 10.825 16.5648 10.9606 16.4232 11.039L14.75 11.9657C14.6578 12.1468 14.556 12.323 14.445 12.4934L14.4772 14.4046C14.4799 14.5661 14.4131 14.721 14.2936 14.8298C13.4625 15.5872 12.4788 16.1578 11.4087 16.5033C11.2542 16.5532 11.0857 16.5338 10.9465 16.4503L9.30222 15.4638C9.10067 15.4728 8.89883 15.4728 8.69728 15.4638L7.05987 16.4436C6.92181 16.5262 6.75498 16.5458 6.60157 16.4973C5.52703 16.1578 4.53911 15.5889 3.7062 14.8298C3.58679 14.721 3.51994 14.5661 3.52267 14.4046L3.55488 12.4976C3.4445 12.3254 3.34272 12.1477 3.24992 11.9654L1.58284 11.0385C1.44249 10.9605 1.34219 10.8262 1.3072 10.6695C1.06197 9.57112 1.05938 8.4325 1.29961 7.33306C1.33415 7.175 1.43508 7.03946 1.57662 6.96107L3.24985 6.03435C3.3421 5.85318 3.4439 5.67704 3.55484 5.50668L3.52267 3.59542C3.51995 3.43389 3.58681 3.27899 3.70622 3.17018C4.53737 2.41279 5.52109 1.84219 6.59119 1.49674ZM4.65189 3.83673L4.68266 5.66476C4.68466 5.78319 4.64921 5.89923 4.58139 5.99633C4.43051 6.21234 4.29842 6.44088 4.18657 6.67944C4.13628 6.78668 4.05342 6.87532 3.9498 6.93271L2.34987 7.81883C2.20993 8.60015 2.21187 9.40033 2.35561 10.181L3.95061 11.0678C4.05344 11.1249 4.13576 11.2129 4.18598 11.3193C4.30029 11.5616 4.43361 11.7944 4.5847 12.0155C4.6504 12.1117 4.68463 12.2259 4.68266 12.3423L4.6519 14.1632C5.2599 14.6768 5.95517 15.0772 6.70459 15.3452L8.26812 14.4095C8.36714 14.3503 8.48199 14.3229 8.59709 14.3311C8.86531 14.3503 9.13455 14.3503 9.40277 14.3311C9.51809 14.3229 9.63316 14.3504 9.7323 14.4099L11.3009 15.351C12.0478 15.0788 12.7409 14.6767 13.348 14.1633L13.3172 12.3353C13.3152 12.2168 13.3506 12.1008 13.4185 12.0037C13.5693 11.7877 13.7014 11.5592 13.8133 11.3206C13.8636 11.2133 13.9464 11.1247 14.0501 11.0673L15.65 10.1812C15.7899 9.39988 15.788 8.5997 15.6442 7.81906L14.0493 6.93226C13.946 6.87486 13.8634 6.7864 13.8133 6.67944C13.7014 6.44088 13.5693 6.21234 13.4185 5.99633C13.3506 5.89923 13.3152 5.78319 13.3172 5.66476L13.348 3.83681C12.74 3.32319 12.0447 2.92285 11.2953 2.65485L9.73174 3.5905C9.63272 3.64976 9.51787 3.67713 9.40277 3.66889C9.13455 3.64971 8.86531 3.64971 8.59709 3.66889C8.48177 3.67714 8.3667 3.64965 8.26756 3.59017L6.69899 2.64903C5.95202 2.92127 5.25898 3.32337 4.65189 3.83673Z" fill="#202125"/>
</g>
</svg>
