<svg width="18" height="16" viewBox="0 0 18 16" fill="none" xmlns="http://www.w3.org/2000/svg">
<path id="Vector" d="M16.6154 0.5H4.15385C3.78662 0.5 3.43444 0.643668 3.17478 0.8994C2.91511 1.15513 2.76923 1.50198 2.76923 1.86364V3.22727H1.38462C1.01739 3.22727 0.66521 3.37094 0.405544 3.62667C0.145879 3.8824 0 4.22925 0 4.59091V14.1364C0 14.498 0.145879 14.8449 0.405544 15.1006C0.66521 15.3563 1.01739 15.5 1.38462 15.5H13.8462C14.2134 15.5 14.5656 15.3563 14.8252 15.1006C15.0849 14.8449 15.2308 14.498 15.2308 14.1364V12.7727H16.6154C16.9826 12.7727 17.3348 12.6291 17.5945 12.3733C17.8541 12.1176 18 11.7708 18 11.4091V1.86364C18 1.50198 17.8541 1.15513 17.5945 0.8994C17.3348 0.643668 16.9826 0.5 16.6154 0.5ZM4.15385 1.86364H16.6154V7.21165L15.7439 6.35426C15.6154 6.2276 15.4627 6.12713 15.2947 6.05858C15.1267 5.99003 14.9466 5.95475 14.7648 5.95475C14.5829 5.95475 14.4028 5.99003 14.2348 6.05858C14.0668 6.12713 13.9142 6.2276 13.7856 6.35426L12.0548 8.05881L8.24712 4.30881C7.98748 4.05327 7.63543 3.90972 7.26837 3.90972C6.9013 3.90972 6.54926 4.05327 6.28962 4.30881L4.15385 6.41222V1.86364ZM13.8462 14.1364H1.38462V4.59091H2.76923V11.4091C2.76923 11.7708 2.91511 12.1176 3.17478 12.3733C3.43444 12.6291 3.78662 12.7727 4.15385 12.7727H13.8462V14.1364ZM16.6154 11.4091H4.15385V8.34091L7.26923 5.27273L11.5667 9.50511C11.6966 9.63288 11.8726 9.70466 12.0561 9.70466C12.2396 9.70466 12.4157 9.63288 12.5455 9.50511L14.7661 7.31818L16.6154 9.14034V11.4091ZM11.7692 4.25C11.7692 4.04772 11.8301 3.84999 11.9442 3.6818C12.0584 3.51362 12.2205 3.38253 12.4103 3.30512C12.6 3.22772 12.8088 3.20746 13.0103 3.24692C13.2117 3.28639 13.3968 3.38379 13.542 3.52682C13.6872 3.66985 13.7861 3.85209 13.8262 4.05048C13.8663 4.24887 13.8457 4.4545 13.7671 4.64138C13.6885 4.82826 13.5554 4.98799 13.3846 5.10037C13.2139 5.21275 13.0131 5.27273 12.8077 5.27273C12.5323 5.27273 12.2681 5.16498 12.0734 4.97318C11.8786 4.78138 11.7692 4.52124 11.7692 4.25Z" fill="#54607A" fill-opacity="0.68"/>
</svg>
