<svg width="16" height="14" viewBox="0 0 16 14" fill="none" xmlns="http://www.w3.org/2000/svg">
<path id="Vector" d="M16 7C16 7.18564 15.9298 7.36368 15.8047 7.49495C15.6797 7.62621 15.5102 7.69996 15.3334 7.69996H2.27628L7.13862 12.8044C7.20056 12.8695 7.24969 12.9467 7.28322 13.0316C7.31674 13.1166 7.33399 13.2077 7.33399 13.2996C7.33399 13.3916 7.31674 13.4827 7.28322 13.5677C7.24969 13.6526 7.20056 13.7298 7.13862 13.7949C7.07669 13.8599 7.00315 13.9115 6.92223 13.9467C6.8413 13.9819 6.75457 14 6.66697 14C6.57938 14 6.49264 13.9819 6.41172 13.9467C6.33079 13.9115 6.25726 13.8599 6.19532 13.7949L0.195518 7.49522C0.133536 7.43021 0.0843647 7.35302 0.0508163 7.26804C0.0172679 7.18307 0 7.09198 0 7C0 6.90801 0.0172679 6.81693 0.0508163 6.73196C0.0843647 6.64698 0.133536 6.56978 0.195518 6.50478L6.19532 0.205128C6.32041 0.0737866 6.49007 -1.3839e-09 6.66697 0C6.84388 1.3839e-09 7.01353 0.0737866 7.13862 0.205128C7.26371 0.336469 7.33399 0.514606 7.33399 0.70035C7.33399 0.886095 7.26371 1.06423 7.13862 1.19557L2.27628 6.30004H15.3334C15.5102 6.30004 15.6797 6.37378 15.8047 6.50505C15.9298 6.63632 16 6.81436 16 7Z" fill="#0077FF"/>
</svg>
