<svg width="18" height="12" viewBox="0 0 18 12" fill="none" xmlns="http://www.w3.org/2000/svg">
<path id="Vector" d="M9 2.94444C8.40666 2.94444 7.82664 3.12365 7.33329 3.4594C6.83994 3.79515 6.45542 4.27236 6.22836 4.83069C6.0013 5.38902 5.94189 6.00339 6.05764 6.59611C6.1734 7.18883 6.45912 7.73328 6.87868 8.1606C7.29824 8.58793 7.83279 8.87894 8.41473 8.99684C8.99667 9.11474 9.59987 9.05423 10.1481 8.82297C10.6962 8.5917 11.1648 8.20006 11.4944 7.69758C11.8241 7.19509 12 6.60433 12 6C12 5.18962 11.6839 4.41242 11.1213 3.8394C10.5587 3.26637 9.79565 2.94444 9 2.94444ZM9 7.83333C8.64399 7.83333 8.29598 7.72581 7.99997 7.52436C7.70397 7.32291 7.47325 7.03658 7.33702 6.70159C7.20078 6.36659 7.16513 5.99797 7.23459 5.64233C7.30404 5.2867 7.47547 4.96003 7.72721 4.70364C7.97894 4.44724 8.29967 4.27263 8.64884 4.20189C8.998 4.13115 9.35992 4.16746 9.68883 4.30622C10.0177 4.44498 10.2989 4.67996 10.4966 4.98145C10.6944 5.28294 10.8 5.6374 10.8 6C10.8 6.48623 10.6104 6.95255 10.2728 7.29636C9.93523 7.64018 9.47739 7.83333 9 7.83333ZM17.4 0.5H0.6C0.44087 0.5 0.288258 0.564385 0.175736 0.67899C0.0632141 0.793596 0 0.949034 0 1.11111V10.8889C0 11.051 0.0632141 11.2064 0.175736 11.321C0.288258 11.4356 0.44087 11.5 0.6 11.5H17.4C17.5591 11.5 17.7117 11.4356 17.8243 11.321C17.9368 11.2064 18 11.051 18 10.8889V1.11111C18 0.949034 17.9368 0.793596 17.8243 0.67899C17.7117 0.564385 17.5591 0.5 17.4 0.5ZM13.9237 10.2778H4.07625C3.8748 9.58386 3.50611 8.95231 3.00374 8.44064C2.50137 7.92897 1.8813 7.55344 1.2 7.34826V4.65174C1.8813 4.44656 2.50137 4.07103 3.00374 3.55936C3.50611 3.04769 3.8748 2.41614 4.07625 1.72222H13.9237C14.1252 2.41614 14.4939 3.04769 14.9963 3.55936C15.4986 4.07103 16.1187 4.44656 16.8 4.65174V7.34826C16.1187 7.55344 15.4986 7.92897 14.9963 8.44064C14.4939 8.95231 14.1252 9.58386 13.9237 10.2778ZM16.8 3.35465C16.0803 3.03947 15.5067 2.45522 15.1973 1.72222H16.8V3.35465ZM2.80275 1.72222C2.49329 2.45522 1.91967 3.03947 1.2 3.35465V1.72222H2.80275ZM1.2 8.64535C1.91967 8.96053 2.49329 9.54478 2.80275 10.2778H1.2V8.64535ZM15.1973 10.2778C15.5067 9.54478 16.0803 8.96053 16.8 8.64535V10.2778H15.1973Z" fill="#343330"/>
</svg>
