<svg width="18" height="16" viewBox="0 0 18 16" fill="none" xmlns="http://www.w3.org/2000/svg">
<path id="Vector" d="M16.6154 0H1.38462C1.01739 0 0.66521 0.146587 0.405544 0.407513C0.145879 0.668439 0 1.02233 0 1.39134V15.3047C6.29933e-05 15.4233 0.0302837 15.5399 0.0877931 15.6434C0.145302 15.7469 0.228192 15.834 0.328591 15.8963C0.428991 15.9586 0.54357 15.994 0.661448 15.9993C0.779327 16.0046 0.896594 15.9795 1.00212 15.9265L3.46154 14.6908L5.92096 15.9265C6.01714 15.9748 6.12322 16 6.23077 16C6.33832 16 6.4444 15.9748 6.54058 15.9265L9 14.6908L11.4594 15.9265C11.5556 15.9748 11.6617 16 11.7692 16C11.8768 16 11.9829 15.9748 12.079 15.9265L14.5385 14.6908L16.9979 15.9265C17.1034 15.9795 17.2207 16.0046 17.3386 15.9993C17.4564 15.994 17.571 15.9586 17.6714 15.8963C17.7718 15.834 17.8547 15.7469 17.9122 15.6434C17.9697 15.5399 17.9999 15.4233 18 15.3047V1.39134C18 1.02233 17.8541 0.668439 17.5945 0.407513C17.3348 0.146587 16.9826 0 16.6154 0ZM16.6154 14.1795L14.8483 13.2907C14.7521 13.2424 14.646 13.2172 14.5385 13.2172C14.4309 13.2172 14.3248 13.2424 14.2287 13.2907L11.7692 14.5273L9.30981 13.2907C9.21363 13.2424 9.10755 13.2172 9 13.2172C8.89245 13.2172 8.78638 13.2424 8.69019 13.2907L6.23077 14.5273L3.77135 13.2907C3.67516 13.2424 3.56909 13.2172 3.46154 13.2172C3.35399 13.2172 3.24791 13.2424 3.15173 13.2907L1.38462 14.1795V1.39134H16.6154V14.1795ZM9.69231 6.26101C9.69231 6.07651 9.76525 5.89957 9.89508 5.7691C10.0249 5.63864 10.201 5.56535 10.3846 5.56535H14.5385C14.7221 5.56535 14.8982 5.63864 15.028 5.7691C15.1578 5.89957 15.2308 6.07651 15.2308 6.26101C15.2308 6.44552 15.1578 6.62246 15.028 6.75293C14.8982 6.88339 14.7221 6.95668 14.5385 6.95668H10.3846C10.201 6.95668 10.0249 6.88339 9.89508 6.75293C9.76525 6.62246 9.69231 6.44552 9.69231 6.26101ZM9.69231 9.04369C9.69231 8.85919 9.76525 8.68224 9.89508 8.55178C10.0249 8.42131 10.201 8.34802 10.3846 8.34802H14.5385C14.7221 8.34802 14.8982 8.42131 15.028 8.55178C15.1578 8.68224 15.2308 8.85919 15.2308 9.04369C15.2308 9.22819 15.1578 9.40514 15.028 9.5356C14.8982 9.66606 14.7221 9.73936 14.5385 9.73936H10.3846C10.201 9.73936 10.0249 9.66606 9.89508 9.5356C9.76525 9.40514 9.69231 9.22819 9.69231 9.04369ZM3.46154 11.1307H7.61539C7.799 11.1307 7.97509 11.0574 8.10492 10.9269C8.23475 10.7965 8.30769 10.6195 8.30769 10.435V4.86968C8.30769 4.68518 8.23475 4.50823 8.10492 4.37777C7.97509 4.2473 7.799 4.17401 7.61539 4.17401H3.46154C3.27793 4.17401 3.10184 4.2473 2.972 4.37777C2.84217 4.50823 2.76923 4.68518 2.76923 4.86968V10.435C2.76923 10.6195 2.84217 10.7965 2.972 10.9269C3.10184 11.0574 3.27793 11.1307 3.46154 11.1307ZM4.15385 5.56535H6.92308V9.73936H4.15385V5.56535Z" fill="#54607A" fill-opacity="0.68"/>
</svg>
