<svg width="19" height="18" viewBox="0 0 19 18" fill="none" xmlns="http://www.w3.org/2000/svg">
<g id="Warning">
<path id="Vector" d="M17.1498 13.2251L11.0009 2.5467C10.8473 2.28509 10.6279 2.06817 10.3646 1.91745C10.1013 1.76673 9.80318 1.68744 9.49978 1.68744C9.19638 1.68744 8.89824 1.76673 8.63493 1.91745C8.37161 2.06817 8.15226 2.28509 7.99861 2.5467L1.84978 13.2251C1.70194 13.4781 1.62402 13.7659 1.62402 14.059C1.62402 14.352 1.70194 14.6398 1.84978 14.8929C2.00146 15.1561 2.22044 15.3742 2.48425 15.5248C2.74806 15.6754 3.04719 15.7531 3.35095 15.75H15.6486C15.9521 15.7529 16.251 15.675 16.5145 15.5244C16.778 15.3738 16.9968 15.1559 17.1484 14.8929C17.2964 14.64 17.3746 14.3522 17.3748 14.0592C17.3751 13.7661 17.2974 13.4782 17.1498 13.2251ZM8.93728 7.31249C8.93728 7.1633 8.99654 7.02023 9.10203 6.91474C9.20752 6.80925 9.35059 6.74999 9.49978 6.74999C9.64896 6.74999 9.79204 6.80925 9.89753 6.91474C10.003 7.02023 10.0623 7.1633 10.0623 7.31249V10.125C10.0623 10.2742 10.003 10.4172 9.89753 10.5227C9.79204 10.6282 9.64896 10.6875 9.49978 10.6875C9.35059 10.6875 9.20752 10.6282 9.10203 10.5227C8.99654 10.4172 8.93728 10.2742 8.93728 10.125V7.31249ZM9.49978 13.5C9.3329 13.5 9.16977 13.4505 9.03102 13.3578C8.89226 13.2651 8.78412 13.1333 8.72025 12.9791C8.65639 12.8249 8.63968 12.6553 8.67224 12.4916C8.7048 12.328 8.78516 12.1776 8.90316 12.0596C9.02116 11.9416 9.1715 11.8613 9.33517 11.8287C9.49884 11.7961 9.66849 11.8129 9.82267 11.8767C9.97684 11.9406 10.1086 12.0487 10.2013 12.1875C10.294 12.3262 10.3435 12.4894 10.3435 12.6562C10.3435 12.88 10.2546 13.0946 10.0964 13.2529C9.93816 13.4111 9.72355 13.5 9.49978 13.5Z" fill="#EF5350"/>
</g>
</svg>
