<svg width="18" height="19" viewBox="0 0 18 19" fill="none" xmlns="http://www.w3.org/2000/svg">
<g id="&#208;&#160;&#208;&#176;&#208;&#183;&#208;&#178;&#208;&#181;&#209;&#128;&#208;&#189;&#209;&#131;&#209;&#130;&#209;&#140;">
<path id="Vector" d="M12.7728 12.477C12.8251 12.5293 12.8666 12.5913 12.8949 12.6596C12.9232 12.7279 12.9378 12.8011 12.9378 12.875C12.9378 12.9489 12.9232 13.0221 12.8949 13.0904C12.8666 13.1587 12.8251 13.2207 12.7728 13.273L9.39779 16.648C9.34555 16.7003 9.28351 16.7418 9.21523 16.7701C9.14694 16.7984 9.07375 16.813 8.99982 16.813C8.9259 16.813 8.85271 16.7984 8.78442 16.7701C8.71613 16.7418 8.6541 16.7003 8.60186 16.648L5.22686 13.273C5.12131 13.1674 5.06201 13.0243 5.06201 12.875C5.06201 12.7257 5.12131 12.5826 5.22686 12.477C5.3324 12.3715 5.47556 12.3122 5.62482 12.3122C5.77409 12.3122 5.91725 12.3715 6.02279 12.477L8.99982 15.4548L11.9769 12.477C12.0291 12.4247 12.0911 12.3833 12.1594 12.3549C12.2277 12.3266 12.3009 12.3121 12.3748 12.3121C12.4487 12.3121 12.5219 12.3266 12.5902 12.3549C12.6585 12.3833 12.7206 12.4247 12.7728 12.477ZM6.02279 6.52298L8.99982 3.54525L11.9769 6.52298C12.0824 6.62853 12.2256 6.68783 12.3748 6.68783C12.5241 6.68783 12.6672 6.62853 12.7728 6.52298C12.8783 6.41744 12.9376 6.27428 12.9376 6.12502C12.9376 5.97575 12.8783 5.83259 12.7728 5.72705L9.39779 2.35205C9.34555 2.29975 9.28351 2.25826 9.21523 2.22995C9.14694 2.20164 9.07375 2.18707 8.99982 2.18707C8.9259 2.18707 8.85271 2.20164 8.78442 2.22995C8.71613 2.25826 8.6541 2.29975 8.60186 2.35205L5.22686 5.72705C5.12131 5.83259 5.06201 5.97575 5.06201 6.12502C5.06201 6.27428 5.12131 6.41744 5.22686 6.52298C5.3324 6.62853 5.47556 6.68783 5.62482 6.68783C5.77409 6.68783 5.91725 6.62853 6.02279 6.52298Z" fill="#343330"/>
</g>
</svg>
